M48
;DRILL file {KiCad (6.0.0-rc1-dev-950-ga5c892d9c)} date 25.10.2018 20:30:57
;FORMAT={3:3/ absolute / metric / suppress leading zeros}
FMAT,2
METRIC,TZ
T1C0.300
T2C0.500
T3C0.800
T4C1.200
%
G90
G05
M71
T1
X159385Y-80010
X159385Y-87630
X159385Y-95250
X159385Y-102870
X167005Y-80010
X167005Y-102870
X174625Y-80010
X174625Y-102870
X177736Y-85344
X179324Y-96012
X180161Y-92067
X180213Y-97028
X180467Y-91313
X180467Y-90488
X180594Y-87305
X181610Y-87821
X182001Y-95099
X182245Y-80010
X182245Y-102870
X182552Y-86027
X182638Y-94685
X183388Y-99695
X183579Y-86995
X184722Y-94229
X184785Y-97473
X184912Y-86106
X185801Y-86106
X186486Y-95073
X186601Y-86106
X186914Y-87826
X188033Y-86233
X188659Y-90615
X188659Y-91504
X188717Y-92317
X188976Y-102870
X189167Y-86741
X189294Y-87757
X189294Y-88900
X189357Y-85979
X189865Y-80010
X189992Y-85598
X190373Y-84455
X190627Y-85598
X191262Y-85598
X192024Y-83185
X192024Y-84709
X194564Y-82423
X194564Y-83566
X197485Y-80010
X197485Y-102870
X205105Y-80010
X205105Y-102870
X212725Y-80010
X212725Y-102870
X218186Y-80010
X218186Y-87630
X218186Y-95250
X218186Y-102870
T2
X166624Y-89408
X166624Y-90932
X166624Y-92456
X166624Y-93980
X167640Y-89408
X167640Y-90932
X167640Y-92456
X167640Y-93980
X168656Y-89408
X168656Y-90932
X168656Y-92456
X168656Y-93980
X169672Y-89408
X169672Y-90932
X169672Y-92456
X169672Y-93980
X170688Y-89408
X170688Y-90932
X170688Y-92456
X170688Y-93980
X171704Y-89408
X171704Y-90932
X171704Y-92456
X171704Y-93980
T3
X168585Y-99314
X172085Y-99314
X175936Y-82888
X175936Y-98128
X178476Y-82888
X178476Y-98128
X181016Y-82888
X181016Y-98128
X183556Y-82888
X183556Y-98128
X186096Y-82888
X186096Y-98128
X170180Y-81788
X170180Y-85288
X200436Y-82888
X200436Y-98128
X202976Y-82888
X202976Y-98128
X205516Y-82888
X205516Y-98128
X208056Y-82888
X208056Y-98128
X210596Y-82888
X210596Y-98128
X188186Y-82888
X188186Y-98128
X190726Y-82888
X190726Y-98128
X193266Y-82888
X193266Y-98128
X195806Y-82888
X195806Y-98128
X198346Y-82888
X198346Y-98128
T4
X161925Y-89662
X161925Y-92202
X209855Y-88773
X209855Y-91313
T0
M30
