G04 #@! TF.GenerationSoftware,KiCad,Pcbnew,(6.0.0-rc1-dev-950-ga5c892d9c)*
G04 #@! TF.CreationDate,2018-10-25T20:30:48+02:00*
G04 #@! TF.ProjectId,adc_7seg_v0,6164635F377365675F76302E6B696361,rev?*
G04 #@! TF.SameCoordinates,Original*
G04 #@! TF.FileFunction,Paste,Top*
G04 #@! TF.FilePolarity,Positive*
%FSLAX46Y46*%
G04 Gerber Fmt 4.6, Leading zero omitted, Abs format (unit mm)*
G04 Created by KiCad (PCBNEW (6.0.0-rc1-dev-950-ga5c892d9c)) date 25.10.2018 20:30:48*
%MOMM*%
%LPD*%
G01*
G04 APERTURE LIST*
%ADD10C,0.100000*%
%ADD11C,0.875000*%
G04 APERTURE END LIST*
D10*
G04 #@! TO.C,R11*
G36*
X184428191Y-95982553D02*
X184449426Y-95985703D01*
X184470250Y-95990919D01*
X184490462Y-95998151D01*
X184509868Y-96007330D01*
X184528281Y-96018366D01*
X184545524Y-96031154D01*
X184561430Y-96045570D01*
X184575846Y-96061476D01*
X184588634Y-96078719D01*
X184599670Y-96097132D01*
X184608849Y-96116538D01*
X184616081Y-96136750D01*
X184621297Y-96157574D01*
X184624447Y-96178809D01*
X184625500Y-96200250D01*
X184625500Y-96712750D01*
X184624447Y-96734191D01*
X184621297Y-96755426D01*
X184616081Y-96776250D01*
X184608849Y-96796462D01*
X184599670Y-96815868D01*
X184588634Y-96834281D01*
X184575846Y-96851524D01*
X184561430Y-96867430D01*
X184545524Y-96881846D01*
X184528281Y-96894634D01*
X184509868Y-96905670D01*
X184490462Y-96914849D01*
X184470250Y-96922081D01*
X184449426Y-96927297D01*
X184428191Y-96930447D01*
X184406750Y-96931500D01*
X183969250Y-96931500D01*
X183947809Y-96930447D01*
X183926574Y-96927297D01*
X183905750Y-96922081D01*
X183885538Y-96914849D01*
X183866132Y-96905670D01*
X183847719Y-96894634D01*
X183830476Y-96881846D01*
X183814570Y-96867430D01*
X183800154Y-96851524D01*
X183787366Y-96834281D01*
X183776330Y-96815868D01*
X183767151Y-96796462D01*
X183759919Y-96776250D01*
X183754703Y-96755426D01*
X183751553Y-96734191D01*
X183750500Y-96712750D01*
X183750500Y-96200250D01*
X183751553Y-96178809D01*
X183754703Y-96157574D01*
X183759919Y-96136750D01*
X183767151Y-96116538D01*
X183776330Y-96097132D01*
X183787366Y-96078719D01*
X183800154Y-96061476D01*
X183814570Y-96045570D01*
X183830476Y-96031154D01*
X183847719Y-96018366D01*
X183866132Y-96007330D01*
X183885538Y-95998151D01*
X183905750Y-95990919D01*
X183926574Y-95985703D01*
X183947809Y-95982553D01*
X183969250Y-95981500D01*
X184406750Y-95981500D01*
X184428191Y-95982553D01*
X184428191Y-95982553D01*
G37*
D11*
X184188000Y-96456500D03*
D10*
G36*
X186003191Y-95982553D02*
X186024426Y-95985703D01*
X186045250Y-95990919D01*
X186065462Y-95998151D01*
X186084868Y-96007330D01*
X186103281Y-96018366D01*
X186120524Y-96031154D01*
X186136430Y-96045570D01*
X186150846Y-96061476D01*
X186163634Y-96078719D01*
X186174670Y-96097132D01*
X186183849Y-96116538D01*
X186191081Y-96136750D01*
X186196297Y-96157574D01*
X186199447Y-96178809D01*
X186200500Y-96200250D01*
X186200500Y-96712750D01*
X186199447Y-96734191D01*
X186196297Y-96755426D01*
X186191081Y-96776250D01*
X186183849Y-96796462D01*
X186174670Y-96815868D01*
X186163634Y-96834281D01*
X186150846Y-96851524D01*
X186136430Y-96867430D01*
X186120524Y-96881846D01*
X186103281Y-96894634D01*
X186084868Y-96905670D01*
X186065462Y-96914849D01*
X186045250Y-96922081D01*
X186024426Y-96927297D01*
X186003191Y-96930447D01*
X185981750Y-96931500D01*
X185544250Y-96931500D01*
X185522809Y-96930447D01*
X185501574Y-96927297D01*
X185480750Y-96922081D01*
X185460538Y-96914849D01*
X185441132Y-96905670D01*
X185422719Y-96894634D01*
X185405476Y-96881846D01*
X185389570Y-96867430D01*
X185375154Y-96851524D01*
X185362366Y-96834281D01*
X185351330Y-96815868D01*
X185342151Y-96796462D01*
X185334919Y-96776250D01*
X185329703Y-96755426D01*
X185326553Y-96734191D01*
X185325500Y-96712750D01*
X185325500Y-96200250D01*
X185326553Y-96178809D01*
X185329703Y-96157574D01*
X185334919Y-96136750D01*
X185342151Y-96116538D01*
X185351330Y-96097132D01*
X185362366Y-96078719D01*
X185375154Y-96061476D01*
X185389570Y-96045570D01*
X185405476Y-96031154D01*
X185422719Y-96018366D01*
X185441132Y-96007330D01*
X185460538Y-95998151D01*
X185480750Y-95990919D01*
X185501574Y-95985703D01*
X185522809Y-95982553D01*
X185544250Y-95981500D01*
X185981750Y-95981500D01*
X186003191Y-95982553D01*
X186003191Y-95982553D01*
G37*
D11*
X185763000Y-96456500D03*
G04 #@! TD*
D10*
G04 #@! TO.C,C8*
G36*
X184428191Y-94522053D02*
X184449426Y-94525203D01*
X184470250Y-94530419D01*
X184490462Y-94537651D01*
X184509868Y-94546830D01*
X184528281Y-94557866D01*
X184545524Y-94570654D01*
X184561430Y-94585070D01*
X184575846Y-94600976D01*
X184588634Y-94618219D01*
X184599670Y-94636632D01*
X184608849Y-94656038D01*
X184616081Y-94676250D01*
X184621297Y-94697074D01*
X184624447Y-94718309D01*
X184625500Y-94739750D01*
X184625500Y-95252250D01*
X184624447Y-95273691D01*
X184621297Y-95294926D01*
X184616081Y-95315750D01*
X184608849Y-95335962D01*
X184599670Y-95355368D01*
X184588634Y-95373781D01*
X184575846Y-95391024D01*
X184561430Y-95406930D01*
X184545524Y-95421346D01*
X184528281Y-95434134D01*
X184509868Y-95445170D01*
X184490462Y-95454349D01*
X184470250Y-95461581D01*
X184449426Y-95466797D01*
X184428191Y-95469947D01*
X184406750Y-95471000D01*
X183969250Y-95471000D01*
X183947809Y-95469947D01*
X183926574Y-95466797D01*
X183905750Y-95461581D01*
X183885538Y-95454349D01*
X183866132Y-95445170D01*
X183847719Y-95434134D01*
X183830476Y-95421346D01*
X183814570Y-95406930D01*
X183800154Y-95391024D01*
X183787366Y-95373781D01*
X183776330Y-95355368D01*
X183767151Y-95335962D01*
X183759919Y-95315750D01*
X183754703Y-95294926D01*
X183751553Y-95273691D01*
X183750500Y-95252250D01*
X183750500Y-94739750D01*
X183751553Y-94718309D01*
X183754703Y-94697074D01*
X183759919Y-94676250D01*
X183767151Y-94656038D01*
X183776330Y-94636632D01*
X183787366Y-94618219D01*
X183800154Y-94600976D01*
X183814570Y-94585070D01*
X183830476Y-94570654D01*
X183847719Y-94557866D01*
X183866132Y-94546830D01*
X183885538Y-94537651D01*
X183905750Y-94530419D01*
X183926574Y-94525203D01*
X183947809Y-94522053D01*
X183969250Y-94521000D01*
X184406750Y-94521000D01*
X184428191Y-94522053D01*
X184428191Y-94522053D01*
G37*
D11*
X184188000Y-94996000D03*
D10*
G36*
X186003191Y-94522053D02*
X186024426Y-94525203D01*
X186045250Y-94530419D01*
X186065462Y-94537651D01*
X186084868Y-94546830D01*
X186103281Y-94557866D01*
X186120524Y-94570654D01*
X186136430Y-94585070D01*
X186150846Y-94600976D01*
X186163634Y-94618219D01*
X186174670Y-94636632D01*
X186183849Y-94656038D01*
X186191081Y-94676250D01*
X186196297Y-94697074D01*
X186199447Y-94718309D01*
X186200500Y-94739750D01*
X186200500Y-95252250D01*
X186199447Y-95273691D01*
X186196297Y-95294926D01*
X186191081Y-95315750D01*
X186183849Y-95335962D01*
X186174670Y-95355368D01*
X186163634Y-95373781D01*
X186150846Y-95391024D01*
X186136430Y-95406930D01*
X186120524Y-95421346D01*
X186103281Y-95434134D01*
X186084868Y-95445170D01*
X186065462Y-95454349D01*
X186045250Y-95461581D01*
X186024426Y-95466797D01*
X186003191Y-95469947D01*
X185981750Y-95471000D01*
X185544250Y-95471000D01*
X185522809Y-95469947D01*
X185501574Y-95466797D01*
X185480750Y-95461581D01*
X185460538Y-95454349D01*
X185441132Y-95445170D01*
X185422719Y-95434134D01*
X185405476Y-95421346D01*
X185389570Y-95406930D01*
X185375154Y-95391024D01*
X185362366Y-95373781D01*
X185351330Y-95355368D01*
X185342151Y-95335962D01*
X185334919Y-95315750D01*
X185329703Y-95294926D01*
X185326553Y-95273691D01*
X185325500Y-95252250D01*
X185325500Y-94739750D01*
X185326553Y-94718309D01*
X185329703Y-94697074D01*
X185334919Y-94676250D01*
X185342151Y-94656038D01*
X185351330Y-94636632D01*
X185362366Y-94618219D01*
X185375154Y-94600976D01*
X185389570Y-94585070D01*
X185405476Y-94570654D01*
X185422719Y-94557866D01*
X185441132Y-94546830D01*
X185460538Y-94537651D01*
X185480750Y-94530419D01*
X185501574Y-94525203D01*
X185522809Y-94522053D01*
X185544250Y-94521000D01*
X185981750Y-94521000D01*
X186003191Y-94522053D01*
X186003191Y-94522053D01*
G37*
D11*
X185763000Y-94996000D03*
G04 #@! TD*
D10*
G04 #@! TO.C,C3*
G36*
X180554191Y-95664553D02*
X180575426Y-95667703D01*
X180596250Y-95672919D01*
X180616462Y-95680151D01*
X180635868Y-95689330D01*
X180654281Y-95700366D01*
X180671524Y-95713154D01*
X180687430Y-95727570D01*
X180701846Y-95743476D01*
X180714634Y-95760719D01*
X180725670Y-95779132D01*
X180734849Y-95798538D01*
X180742081Y-95818750D01*
X180747297Y-95839574D01*
X180750447Y-95860809D01*
X180751500Y-95882250D01*
X180751500Y-96319750D01*
X180750447Y-96341191D01*
X180747297Y-96362426D01*
X180742081Y-96383250D01*
X180734849Y-96403462D01*
X180725670Y-96422868D01*
X180714634Y-96441281D01*
X180701846Y-96458524D01*
X180687430Y-96474430D01*
X180671524Y-96488846D01*
X180654281Y-96501634D01*
X180635868Y-96512670D01*
X180616462Y-96521849D01*
X180596250Y-96529081D01*
X180575426Y-96534297D01*
X180554191Y-96537447D01*
X180532750Y-96538500D01*
X180020250Y-96538500D01*
X179998809Y-96537447D01*
X179977574Y-96534297D01*
X179956750Y-96529081D01*
X179936538Y-96521849D01*
X179917132Y-96512670D01*
X179898719Y-96501634D01*
X179881476Y-96488846D01*
X179865570Y-96474430D01*
X179851154Y-96458524D01*
X179838366Y-96441281D01*
X179827330Y-96422868D01*
X179818151Y-96403462D01*
X179810919Y-96383250D01*
X179805703Y-96362426D01*
X179802553Y-96341191D01*
X179801500Y-96319750D01*
X179801500Y-95882250D01*
X179802553Y-95860809D01*
X179805703Y-95839574D01*
X179810919Y-95818750D01*
X179818151Y-95798538D01*
X179827330Y-95779132D01*
X179838366Y-95760719D01*
X179851154Y-95743476D01*
X179865570Y-95727570D01*
X179881476Y-95713154D01*
X179898719Y-95700366D01*
X179917132Y-95689330D01*
X179936538Y-95680151D01*
X179956750Y-95672919D01*
X179977574Y-95667703D01*
X179998809Y-95664553D01*
X180020250Y-95663500D01*
X180532750Y-95663500D01*
X180554191Y-95664553D01*
X180554191Y-95664553D01*
G37*
D11*
X180276500Y-96101000D03*
D10*
G36*
X180554191Y-94089553D02*
X180575426Y-94092703D01*
X180596250Y-94097919D01*
X180616462Y-94105151D01*
X180635868Y-94114330D01*
X180654281Y-94125366D01*
X180671524Y-94138154D01*
X180687430Y-94152570D01*
X180701846Y-94168476D01*
X180714634Y-94185719D01*
X180725670Y-94204132D01*
X180734849Y-94223538D01*
X180742081Y-94243750D01*
X180747297Y-94264574D01*
X180750447Y-94285809D01*
X180751500Y-94307250D01*
X180751500Y-94744750D01*
X180750447Y-94766191D01*
X180747297Y-94787426D01*
X180742081Y-94808250D01*
X180734849Y-94828462D01*
X180725670Y-94847868D01*
X180714634Y-94866281D01*
X180701846Y-94883524D01*
X180687430Y-94899430D01*
X180671524Y-94913846D01*
X180654281Y-94926634D01*
X180635868Y-94937670D01*
X180616462Y-94946849D01*
X180596250Y-94954081D01*
X180575426Y-94959297D01*
X180554191Y-94962447D01*
X180532750Y-94963500D01*
X180020250Y-94963500D01*
X179998809Y-94962447D01*
X179977574Y-94959297D01*
X179956750Y-94954081D01*
X179936538Y-94946849D01*
X179917132Y-94937670D01*
X179898719Y-94926634D01*
X179881476Y-94913846D01*
X179865570Y-94899430D01*
X179851154Y-94883524D01*
X179838366Y-94866281D01*
X179827330Y-94847868D01*
X179818151Y-94828462D01*
X179810919Y-94808250D01*
X179805703Y-94787426D01*
X179802553Y-94766191D01*
X179801500Y-94744750D01*
X179801500Y-94307250D01*
X179802553Y-94285809D01*
X179805703Y-94264574D01*
X179810919Y-94243750D01*
X179818151Y-94223538D01*
X179827330Y-94204132D01*
X179838366Y-94185719D01*
X179851154Y-94168476D01*
X179865570Y-94152570D01*
X179881476Y-94138154D01*
X179898719Y-94125366D01*
X179917132Y-94114330D01*
X179936538Y-94105151D01*
X179956750Y-94097919D01*
X179977574Y-94092703D01*
X179998809Y-94089553D01*
X180020250Y-94088500D01*
X180532750Y-94088500D01*
X180554191Y-94089553D01*
X180554191Y-94089553D01*
G37*
D11*
X180276500Y-94526000D03*
G04 #@! TD*
M02*
