G04 #@! TF.GenerationSoftware,KiCad,Pcbnew,(6.0.0-rc1-dev-950-ga5c892d9c)*
G04 #@! TF.CreationDate,2018-10-25T20:30:48+02:00*
G04 #@! TF.ProjectId,adc_7seg_v0,6164635F377365675F76302E6B696361,rev?*
G04 #@! TF.SameCoordinates,Original*
G04 #@! TF.FileFunction,Soldermask,Top*
G04 #@! TF.FilePolarity,Negative*
%FSLAX46Y46*%
G04 Gerber Fmt 4.6, Leading zero omitted, Abs format (unit mm)*
G04 Created by KiCad (PCBNEW (6.0.0-rc1-dev-950-ga5c892d9c)) date 25.10.2018 20:30:48*
%MOMM*%
%LPD*%
G01*
G04 APERTURE LIST*
%ADD10C,0.100000*%
G04 APERTURE END LIST*
D10*
G36*
X216442079Y-95725345D02*
X216524556Y-95759508D01*
X217097240Y-95996721D01*
X217684205Y-96388919D01*
X217686869Y-96390699D01*
X218188301Y-96892131D01*
X218188303Y-96892134D01*
X218582279Y-97481760D01*
X218813912Y-98040974D01*
X218853655Y-98136921D01*
X218992000Y-98832429D01*
X218992000Y-99541571D01*
X218853655Y-100237079D01*
X218853654Y-100237081D01*
X218582279Y-100892240D01*
X218190081Y-101479205D01*
X218188301Y-101481869D01*
X217686869Y-101983301D01*
X217686866Y-101983303D01*
X217097240Y-102377279D01*
X216538026Y-102608912D01*
X216442079Y-102648655D01*
X215746571Y-102787000D01*
X215037429Y-102787000D01*
X214341921Y-102648655D01*
X214245974Y-102608912D01*
X213686760Y-102377279D01*
X213097134Y-101983303D01*
X213097131Y-101983301D01*
X212595699Y-101481869D01*
X212593919Y-101479205D01*
X212201721Y-100892240D01*
X211930346Y-100237081D01*
X211930345Y-100237079D01*
X211792000Y-99541571D01*
X211792000Y-98832429D01*
X211930345Y-98136921D01*
X211970088Y-98040974D01*
X212201721Y-97481760D01*
X212595697Y-96892134D01*
X212595699Y-96892131D01*
X213097131Y-96390699D01*
X213099795Y-96388919D01*
X213686760Y-95996721D01*
X214259444Y-95759508D01*
X214341921Y-95725345D01*
X215037429Y-95587000D01*
X215746571Y-95587000D01*
X216442079Y-95725345D01*
X216442079Y-95725345D01*
G37*
G36*
X163102079Y-95725345D02*
X163184556Y-95759508D01*
X163757240Y-95996721D01*
X164344205Y-96388919D01*
X164346869Y-96390699D01*
X164848301Y-96892131D01*
X164848303Y-96892134D01*
X165242279Y-97481760D01*
X165473912Y-98040974D01*
X165513655Y-98136921D01*
X165652000Y-98832429D01*
X165652000Y-99541571D01*
X165513655Y-100237079D01*
X165513654Y-100237081D01*
X165242279Y-100892240D01*
X164850081Y-101479205D01*
X164848301Y-101481869D01*
X164346869Y-101983301D01*
X164346866Y-101983303D01*
X163757240Y-102377279D01*
X163198026Y-102608912D01*
X163102079Y-102648655D01*
X162406571Y-102787000D01*
X161697429Y-102787000D01*
X161001921Y-102648655D01*
X160905974Y-102608912D01*
X160346760Y-102377279D01*
X159757134Y-101983303D01*
X159757131Y-101983301D01*
X159255699Y-101481869D01*
X159253919Y-101479205D01*
X158861721Y-100892240D01*
X158590346Y-100237081D01*
X158590345Y-100237079D01*
X158452000Y-99541571D01*
X158452000Y-98832429D01*
X158590345Y-98136921D01*
X158630088Y-98040974D01*
X158861721Y-97481760D01*
X159255697Y-96892134D01*
X159255699Y-96892131D01*
X159757131Y-96390699D01*
X159759795Y-96388919D01*
X160346760Y-95996721D01*
X160919444Y-95759508D01*
X161001921Y-95725345D01*
X161697429Y-95587000D01*
X162406571Y-95587000D01*
X163102079Y-95725345D01*
X163102079Y-95725345D01*
G37*
G36*
X172935000Y-100164000D02*
X171235000Y-100164000D01*
X171235000Y-98464000D01*
X172935000Y-98464000D01*
X172935000Y-100164000D01*
X172935000Y-100164000D01*
G37*
G36*
X168832934Y-98496664D02*
X168987627Y-98560740D01*
X169126847Y-98653764D01*
X169245236Y-98772153D01*
X169338260Y-98911373D01*
X169402336Y-99066066D01*
X169435000Y-99230281D01*
X169435000Y-99397719D01*
X169402336Y-99561934D01*
X169338260Y-99716627D01*
X169245236Y-99855847D01*
X169126847Y-99974236D01*
X168987627Y-100067260D01*
X168832934Y-100131336D01*
X168668719Y-100164000D01*
X168501281Y-100164000D01*
X168337066Y-100131336D01*
X168182373Y-100067260D01*
X168043153Y-99974236D01*
X167924764Y-99855847D01*
X167831740Y-99716627D01*
X167767664Y-99561934D01*
X167735000Y-99397719D01*
X167735000Y-99230281D01*
X167767664Y-99066066D01*
X167831740Y-98911373D01*
X167924764Y-98772153D01*
X168043153Y-98653764D01*
X168182373Y-98560740D01*
X168337066Y-98496664D01*
X168501281Y-98464000D01*
X168668719Y-98464000D01*
X168832934Y-98496664D01*
X168832934Y-98496664D01*
G37*
G36*
X205749352Y-97358743D02*
X205894941Y-97419048D01*
X206025973Y-97506601D01*
X206137399Y-97618027D01*
X206224952Y-97749059D01*
X206285257Y-97894648D01*
X206316000Y-98049205D01*
X206316000Y-98206795D01*
X206285257Y-98361352D01*
X206224952Y-98506941D01*
X206137399Y-98637973D01*
X206025973Y-98749399D01*
X205894941Y-98836952D01*
X205749352Y-98897257D01*
X205594795Y-98928000D01*
X205437205Y-98928000D01*
X205282648Y-98897257D01*
X205137059Y-98836952D01*
X205006027Y-98749399D01*
X204894601Y-98637973D01*
X204807048Y-98506941D01*
X204746743Y-98361352D01*
X204716000Y-98206795D01*
X204716000Y-98049205D01*
X204746743Y-97894648D01*
X204807048Y-97749059D01*
X204894601Y-97618027D01*
X205006027Y-97506601D01*
X205137059Y-97419048D01*
X205282648Y-97358743D01*
X205437205Y-97328000D01*
X205594795Y-97328000D01*
X205749352Y-97358743D01*
X205749352Y-97358743D01*
G37*
G36*
X193499352Y-97358743D02*
X193644941Y-97419048D01*
X193775973Y-97506601D01*
X193887399Y-97618027D01*
X193974952Y-97749059D01*
X194035257Y-97894648D01*
X194066000Y-98049205D01*
X194066000Y-98206795D01*
X194035257Y-98361352D01*
X193974952Y-98506941D01*
X193887399Y-98637973D01*
X193775973Y-98749399D01*
X193644941Y-98836952D01*
X193499352Y-98897257D01*
X193344795Y-98928000D01*
X193187205Y-98928000D01*
X193032648Y-98897257D01*
X192887059Y-98836952D01*
X192756027Y-98749399D01*
X192644601Y-98637973D01*
X192557048Y-98506941D01*
X192496743Y-98361352D01*
X192466000Y-98206795D01*
X192466000Y-98049205D01*
X192496743Y-97894648D01*
X192557048Y-97749059D01*
X192644601Y-97618027D01*
X192756027Y-97506601D01*
X192887059Y-97419048D01*
X193032648Y-97358743D01*
X193187205Y-97328000D01*
X193344795Y-97328000D01*
X193499352Y-97358743D01*
X193499352Y-97358743D01*
G37*
G36*
X190959352Y-97358743D02*
X191104941Y-97419048D01*
X191235973Y-97506601D01*
X191347399Y-97618027D01*
X191434952Y-97749059D01*
X191495257Y-97894648D01*
X191526000Y-98049205D01*
X191526000Y-98206795D01*
X191495257Y-98361352D01*
X191434952Y-98506941D01*
X191347399Y-98637973D01*
X191235973Y-98749399D01*
X191104941Y-98836952D01*
X190959352Y-98897257D01*
X190804795Y-98928000D01*
X190647205Y-98928000D01*
X190492648Y-98897257D01*
X190347059Y-98836952D01*
X190216027Y-98749399D01*
X190104601Y-98637973D01*
X190017048Y-98506941D01*
X189956743Y-98361352D01*
X189926000Y-98206795D01*
X189926000Y-98049205D01*
X189956743Y-97894648D01*
X190017048Y-97749059D01*
X190104601Y-97618027D01*
X190216027Y-97506601D01*
X190347059Y-97419048D01*
X190492648Y-97358743D01*
X190647205Y-97328000D01*
X190804795Y-97328000D01*
X190959352Y-97358743D01*
X190959352Y-97358743D01*
G37*
G36*
X196039352Y-97358743D02*
X196184941Y-97419048D01*
X196315973Y-97506601D01*
X196427399Y-97618027D01*
X196514952Y-97749059D01*
X196575257Y-97894648D01*
X196606000Y-98049205D01*
X196606000Y-98206795D01*
X196575257Y-98361352D01*
X196514952Y-98506941D01*
X196427399Y-98637973D01*
X196315973Y-98749399D01*
X196184941Y-98836952D01*
X196039352Y-98897257D01*
X195884795Y-98928000D01*
X195727205Y-98928000D01*
X195572648Y-98897257D01*
X195427059Y-98836952D01*
X195296027Y-98749399D01*
X195184601Y-98637973D01*
X195097048Y-98506941D01*
X195036743Y-98361352D01*
X195006000Y-98206795D01*
X195006000Y-98049205D01*
X195036743Y-97894648D01*
X195097048Y-97749059D01*
X195184601Y-97618027D01*
X195296027Y-97506601D01*
X195427059Y-97419048D01*
X195572648Y-97358743D01*
X195727205Y-97328000D01*
X195884795Y-97328000D01*
X196039352Y-97358743D01*
X196039352Y-97358743D01*
G37*
G36*
X198579352Y-97358743D02*
X198724941Y-97419048D01*
X198855973Y-97506601D01*
X198967399Y-97618027D01*
X199054952Y-97749059D01*
X199115257Y-97894648D01*
X199146000Y-98049205D01*
X199146000Y-98206795D01*
X199115257Y-98361352D01*
X199054952Y-98506941D01*
X198967399Y-98637973D01*
X198855973Y-98749399D01*
X198724941Y-98836952D01*
X198579352Y-98897257D01*
X198424795Y-98928000D01*
X198267205Y-98928000D01*
X198112648Y-98897257D01*
X197967059Y-98836952D01*
X197836027Y-98749399D01*
X197724601Y-98637973D01*
X197637048Y-98506941D01*
X197576743Y-98361352D01*
X197546000Y-98206795D01*
X197546000Y-98049205D01*
X197576743Y-97894648D01*
X197637048Y-97749059D01*
X197724601Y-97618027D01*
X197836027Y-97506601D01*
X197967059Y-97419048D01*
X198112648Y-97358743D01*
X198267205Y-97328000D01*
X198424795Y-97328000D01*
X198579352Y-97358743D01*
X198579352Y-97358743D01*
G37*
G36*
X188986000Y-98928000D02*
X187386000Y-98928000D01*
X187386000Y-97328000D01*
X188986000Y-97328000D01*
X188986000Y-98928000D01*
X188986000Y-98928000D01*
G37*
G36*
X203209352Y-97358743D02*
X203354941Y-97419048D01*
X203485973Y-97506601D01*
X203597399Y-97618027D01*
X203684952Y-97749059D01*
X203745257Y-97894648D01*
X203776000Y-98049205D01*
X203776000Y-98206795D01*
X203745257Y-98361352D01*
X203684952Y-98506941D01*
X203597399Y-98637973D01*
X203485973Y-98749399D01*
X203354941Y-98836952D01*
X203209352Y-98897257D01*
X203054795Y-98928000D01*
X202897205Y-98928000D01*
X202742648Y-98897257D01*
X202597059Y-98836952D01*
X202466027Y-98749399D01*
X202354601Y-98637973D01*
X202267048Y-98506941D01*
X202206743Y-98361352D01*
X202176000Y-98206795D01*
X202176000Y-98049205D01*
X202206743Y-97894648D01*
X202267048Y-97749059D01*
X202354601Y-97618027D01*
X202466027Y-97506601D01*
X202597059Y-97419048D01*
X202742648Y-97358743D01*
X202897205Y-97328000D01*
X203054795Y-97328000D01*
X203209352Y-97358743D01*
X203209352Y-97358743D01*
G37*
G36*
X208289352Y-97358743D02*
X208434941Y-97419048D01*
X208565973Y-97506601D01*
X208677399Y-97618027D01*
X208764952Y-97749059D01*
X208825257Y-97894648D01*
X208856000Y-98049205D01*
X208856000Y-98206795D01*
X208825257Y-98361352D01*
X208764952Y-98506941D01*
X208677399Y-98637973D01*
X208565973Y-98749399D01*
X208434941Y-98836952D01*
X208289352Y-98897257D01*
X208134795Y-98928000D01*
X207977205Y-98928000D01*
X207822648Y-98897257D01*
X207677059Y-98836952D01*
X207546027Y-98749399D01*
X207434601Y-98637973D01*
X207347048Y-98506941D01*
X207286743Y-98361352D01*
X207256000Y-98206795D01*
X207256000Y-98049205D01*
X207286743Y-97894648D01*
X207347048Y-97749059D01*
X207434601Y-97618027D01*
X207546027Y-97506601D01*
X207677059Y-97419048D01*
X207822648Y-97358743D01*
X207977205Y-97328000D01*
X208134795Y-97328000D01*
X208289352Y-97358743D01*
X208289352Y-97358743D01*
G37*
G36*
X210829352Y-97358743D02*
X210974941Y-97419048D01*
X211105973Y-97506601D01*
X211217399Y-97618027D01*
X211304952Y-97749059D01*
X211365257Y-97894648D01*
X211396000Y-98049205D01*
X211396000Y-98206795D01*
X211365257Y-98361352D01*
X211304952Y-98506941D01*
X211217399Y-98637973D01*
X211105973Y-98749399D01*
X210974941Y-98836952D01*
X210829352Y-98897257D01*
X210674795Y-98928000D01*
X210517205Y-98928000D01*
X210362648Y-98897257D01*
X210217059Y-98836952D01*
X210086027Y-98749399D01*
X209974601Y-98637973D01*
X209887048Y-98506941D01*
X209826743Y-98361352D01*
X209796000Y-98206795D01*
X209796000Y-98049205D01*
X209826743Y-97894648D01*
X209887048Y-97749059D01*
X209974601Y-97618027D01*
X210086027Y-97506601D01*
X210217059Y-97419048D01*
X210362648Y-97358743D01*
X210517205Y-97328000D01*
X210674795Y-97328000D01*
X210829352Y-97358743D01*
X210829352Y-97358743D01*
G37*
G36*
X201236000Y-98928000D02*
X199636000Y-98928000D01*
X199636000Y-97328000D01*
X201236000Y-97328000D01*
X201236000Y-98928000D01*
X201236000Y-98928000D01*
G37*
G36*
X181249352Y-97358743D02*
X181394941Y-97419048D01*
X181525973Y-97506601D01*
X181637399Y-97618027D01*
X181724952Y-97749059D01*
X181785257Y-97894648D01*
X181816000Y-98049205D01*
X181816000Y-98206795D01*
X181785257Y-98361352D01*
X181724952Y-98506941D01*
X181637399Y-98637973D01*
X181525973Y-98749399D01*
X181394941Y-98836952D01*
X181249352Y-98897257D01*
X181094795Y-98928000D01*
X180937205Y-98928000D01*
X180782648Y-98897257D01*
X180637059Y-98836952D01*
X180506027Y-98749399D01*
X180394601Y-98637973D01*
X180307048Y-98506941D01*
X180246743Y-98361352D01*
X180216000Y-98206795D01*
X180216000Y-98049205D01*
X180246743Y-97894648D01*
X180307048Y-97749059D01*
X180394601Y-97618027D01*
X180506027Y-97506601D01*
X180637059Y-97419048D01*
X180782648Y-97358743D01*
X180937205Y-97328000D01*
X181094795Y-97328000D01*
X181249352Y-97358743D01*
X181249352Y-97358743D01*
G37*
G36*
X178709352Y-97358743D02*
X178854941Y-97419048D01*
X178985973Y-97506601D01*
X179097399Y-97618027D01*
X179184952Y-97749059D01*
X179245257Y-97894648D01*
X179276000Y-98049205D01*
X179276000Y-98206795D01*
X179245257Y-98361352D01*
X179184952Y-98506941D01*
X179097399Y-98637973D01*
X178985973Y-98749399D01*
X178854941Y-98836952D01*
X178709352Y-98897257D01*
X178554795Y-98928000D01*
X178397205Y-98928000D01*
X178242648Y-98897257D01*
X178097059Y-98836952D01*
X177966027Y-98749399D01*
X177854601Y-98637973D01*
X177767048Y-98506941D01*
X177706743Y-98361352D01*
X177676000Y-98206795D01*
X177676000Y-98049205D01*
X177706743Y-97894648D01*
X177767048Y-97749059D01*
X177854601Y-97618027D01*
X177966027Y-97506601D01*
X178097059Y-97419048D01*
X178242648Y-97358743D01*
X178397205Y-97328000D01*
X178554795Y-97328000D01*
X178709352Y-97358743D01*
X178709352Y-97358743D01*
G37*
G36*
X183789352Y-97358743D02*
X183934941Y-97419048D01*
X184065973Y-97506601D01*
X184177399Y-97618027D01*
X184264952Y-97749059D01*
X184325257Y-97894648D01*
X184356000Y-98049205D01*
X184356000Y-98206795D01*
X184325257Y-98361352D01*
X184264952Y-98506941D01*
X184177399Y-98637973D01*
X184065973Y-98749399D01*
X183934941Y-98836952D01*
X183789352Y-98897257D01*
X183634795Y-98928000D01*
X183477205Y-98928000D01*
X183322648Y-98897257D01*
X183177059Y-98836952D01*
X183046027Y-98749399D01*
X182934601Y-98637973D01*
X182847048Y-98506941D01*
X182786743Y-98361352D01*
X182756000Y-98206795D01*
X182756000Y-98049205D01*
X182786743Y-97894648D01*
X182847048Y-97749059D01*
X182934601Y-97618027D01*
X183046027Y-97506601D01*
X183177059Y-97419048D01*
X183322648Y-97358743D01*
X183477205Y-97328000D01*
X183634795Y-97328000D01*
X183789352Y-97358743D01*
X183789352Y-97358743D01*
G37*
G36*
X186329352Y-97358743D02*
X186474941Y-97419048D01*
X186605973Y-97506601D01*
X186717399Y-97618027D01*
X186804952Y-97749059D01*
X186865257Y-97894648D01*
X186896000Y-98049205D01*
X186896000Y-98206795D01*
X186865257Y-98361352D01*
X186804952Y-98506941D01*
X186717399Y-98637973D01*
X186605973Y-98749399D01*
X186474941Y-98836952D01*
X186329352Y-98897257D01*
X186174795Y-98928000D01*
X186017205Y-98928000D01*
X185862648Y-98897257D01*
X185717059Y-98836952D01*
X185586027Y-98749399D01*
X185474601Y-98637973D01*
X185387048Y-98506941D01*
X185326743Y-98361352D01*
X185296000Y-98206795D01*
X185296000Y-98049205D01*
X185326743Y-97894648D01*
X185387048Y-97749059D01*
X185474601Y-97618027D01*
X185586027Y-97506601D01*
X185717059Y-97419048D01*
X185862648Y-97358743D01*
X186017205Y-97328000D01*
X186174795Y-97328000D01*
X186329352Y-97358743D01*
X186329352Y-97358743D01*
G37*
G36*
X176736000Y-98928000D02*
X175136000Y-98928000D01*
X175136000Y-97328000D01*
X176736000Y-97328000D01*
X176736000Y-98928000D01*
X176736000Y-98928000D01*
G37*
G36*
X184529492Y-95935576D02*
X184563383Y-95945857D01*
X184594611Y-95962548D01*
X184621985Y-95985015D01*
X184644452Y-96012389D01*
X184661143Y-96043617D01*
X184671424Y-96077508D01*
X184675500Y-96118891D01*
X184675500Y-96794109D01*
X184671424Y-96835492D01*
X184661143Y-96869383D01*
X184644452Y-96900611D01*
X184621985Y-96927985D01*
X184594611Y-96950452D01*
X184563383Y-96967143D01*
X184529492Y-96977424D01*
X184488109Y-96981500D01*
X183887891Y-96981500D01*
X183846508Y-96977424D01*
X183812617Y-96967143D01*
X183781389Y-96950452D01*
X183754015Y-96927985D01*
X183731548Y-96900611D01*
X183714857Y-96869383D01*
X183704576Y-96835492D01*
X183700500Y-96794109D01*
X183700500Y-96118891D01*
X183704576Y-96077508D01*
X183714857Y-96043617D01*
X183731548Y-96012389D01*
X183754015Y-95985015D01*
X183781389Y-95962548D01*
X183812617Y-95945857D01*
X183846508Y-95935576D01*
X183887891Y-95931500D01*
X184488109Y-95931500D01*
X184529492Y-95935576D01*
X184529492Y-95935576D01*
G37*
G36*
X186104492Y-95935576D02*
X186138383Y-95945857D01*
X186169611Y-95962548D01*
X186196985Y-95985015D01*
X186219452Y-96012389D01*
X186236143Y-96043617D01*
X186246424Y-96077508D01*
X186250500Y-96118891D01*
X186250500Y-96794109D01*
X186246424Y-96835492D01*
X186236143Y-96869383D01*
X186219452Y-96900611D01*
X186196985Y-96927985D01*
X186169611Y-96950452D01*
X186138383Y-96967143D01*
X186104492Y-96977424D01*
X186063109Y-96981500D01*
X185462891Y-96981500D01*
X185421508Y-96977424D01*
X185387617Y-96967143D01*
X185356389Y-96950452D01*
X185329015Y-96927985D01*
X185306548Y-96900611D01*
X185289857Y-96869383D01*
X185279576Y-96835492D01*
X185275500Y-96794109D01*
X185275500Y-96118891D01*
X185279576Y-96077508D01*
X185289857Y-96043617D01*
X185306548Y-96012389D01*
X185329015Y-95985015D01*
X185356389Y-95962548D01*
X185387617Y-95945857D01*
X185421508Y-95935576D01*
X185462891Y-95931500D01*
X186063109Y-95931500D01*
X186104492Y-95935576D01*
X186104492Y-95935576D01*
G37*
G36*
X180655492Y-95617576D02*
X180689383Y-95627857D01*
X180720611Y-95644548D01*
X180747985Y-95667015D01*
X180770452Y-95694389D01*
X180787143Y-95725617D01*
X180797424Y-95759508D01*
X180801500Y-95800891D01*
X180801500Y-96401109D01*
X180797424Y-96442492D01*
X180787143Y-96476383D01*
X180770452Y-96507611D01*
X180747985Y-96534985D01*
X180720611Y-96557452D01*
X180689383Y-96574143D01*
X180655492Y-96584424D01*
X180614109Y-96588500D01*
X179938891Y-96588500D01*
X179897508Y-96584424D01*
X179863617Y-96574143D01*
X179832389Y-96557452D01*
X179805015Y-96534985D01*
X179782548Y-96507611D01*
X179765857Y-96476383D01*
X179755576Y-96442492D01*
X179751500Y-96401109D01*
X179751500Y-95800891D01*
X179755576Y-95759508D01*
X179765857Y-95725617D01*
X179782548Y-95694389D01*
X179805015Y-95667015D01*
X179832389Y-95644548D01*
X179863617Y-95627857D01*
X179897508Y-95617576D01*
X179938891Y-95613500D01*
X180614109Y-95613500D01*
X180655492Y-95617576D01*
X180655492Y-95617576D01*
G37*
G36*
X184529492Y-94475076D02*
X184563383Y-94485357D01*
X184594611Y-94502048D01*
X184621985Y-94524515D01*
X184644452Y-94551889D01*
X184661143Y-94583117D01*
X184671424Y-94617008D01*
X184675500Y-94658391D01*
X184675500Y-95333609D01*
X184671424Y-95374992D01*
X184661143Y-95408883D01*
X184644452Y-95440111D01*
X184621985Y-95467485D01*
X184594611Y-95489952D01*
X184563383Y-95506643D01*
X184529492Y-95516924D01*
X184488109Y-95521000D01*
X183887891Y-95521000D01*
X183846508Y-95516924D01*
X183812617Y-95506643D01*
X183781389Y-95489952D01*
X183754015Y-95467485D01*
X183731548Y-95440111D01*
X183714857Y-95408883D01*
X183704576Y-95374992D01*
X183700500Y-95333609D01*
X183700500Y-94658391D01*
X183704576Y-94617008D01*
X183714857Y-94583117D01*
X183731548Y-94551889D01*
X183754015Y-94524515D01*
X183781389Y-94502048D01*
X183812617Y-94485357D01*
X183846508Y-94475076D01*
X183887891Y-94471000D01*
X184488109Y-94471000D01*
X184529492Y-94475076D01*
X184529492Y-94475076D01*
G37*
G36*
X186104492Y-94475076D02*
X186138383Y-94485357D01*
X186169611Y-94502048D01*
X186196985Y-94524515D01*
X186219452Y-94551889D01*
X186236143Y-94583117D01*
X186246424Y-94617008D01*
X186250500Y-94658391D01*
X186250500Y-95333609D01*
X186246424Y-95374992D01*
X186236143Y-95408883D01*
X186219452Y-95440111D01*
X186196985Y-95467485D01*
X186169611Y-95489952D01*
X186138383Y-95506643D01*
X186104492Y-95516924D01*
X186063109Y-95521000D01*
X185462891Y-95521000D01*
X185421508Y-95516924D01*
X185387617Y-95506643D01*
X185356389Y-95489952D01*
X185329015Y-95467485D01*
X185306548Y-95440111D01*
X185289857Y-95408883D01*
X185279576Y-95374992D01*
X185275500Y-95333609D01*
X185275500Y-94658391D01*
X185279576Y-94617008D01*
X185289857Y-94583117D01*
X185306548Y-94551889D01*
X185329015Y-94524515D01*
X185356389Y-94502048D01*
X185387617Y-94485357D01*
X185421508Y-94475076D01*
X185462891Y-94471000D01*
X186063109Y-94471000D01*
X186104492Y-94475076D01*
X186104492Y-94475076D01*
G37*
G36*
X180655492Y-94042576D02*
X180689383Y-94052857D01*
X180720611Y-94069548D01*
X180747985Y-94092015D01*
X180770452Y-94119389D01*
X180787143Y-94150617D01*
X180797424Y-94184508D01*
X180801500Y-94225891D01*
X180801500Y-94826109D01*
X180797424Y-94867492D01*
X180787143Y-94901383D01*
X180770452Y-94932611D01*
X180747985Y-94959985D01*
X180720611Y-94982452D01*
X180689383Y-94999143D01*
X180655492Y-95009424D01*
X180614109Y-95013500D01*
X179938891Y-95013500D01*
X179897508Y-95009424D01*
X179863617Y-94999143D01*
X179832389Y-94982452D01*
X179805015Y-94959985D01*
X179782548Y-94932611D01*
X179765857Y-94901383D01*
X179755576Y-94867492D01*
X179751500Y-94826109D01*
X179751500Y-94225891D01*
X179755576Y-94184508D01*
X179765857Y-94150617D01*
X179782548Y-94119389D01*
X179805015Y-94092015D01*
X179832389Y-94069548D01*
X179863617Y-94052857D01*
X179897508Y-94042576D01*
X179938891Y-94038500D01*
X180614109Y-94038500D01*
X180655492Y-94042576D01*
X180655492Y-94042576D01*
G37*
G36*
X162933790Y-91285961D02*
X162966563Y-91295903D01*
X162996764Y-91312045D01*
X163023232Y-91333768D01*
X163044955Y-91360236D01*
X163061097Y-91390437D01*
X163071039Y-91423210D01*
X163075000Y-91463427D01*
X163075000Y-92940573D01*
X163071039Y-92980790D01*
X163061097Y-93013563D01*
X163044955Y-93043764D01*
X163023232Y-93070232D01*
X162996764Y-93091955D01*
X162966563Y-93108097D01*
X162933790Y-93118039D01*
X162893573Y-93122000D01*
X160956427Y-93122000D01*
X160916210Y-93118039D01*
X160883437Y-93108097D01*
X160853236Y-93091955D01*
X160826768Y-93070232D01*
X160805045Y-93043764D01*
X160788903Y-93013563D01*
X160778961Y-92980790D01*
X160775000Y-92940573D01*
X160775000Y-91463427D01*
X160778961Y-91423210D01*
X160788903Y-91390437D01*
X160805045Y-91360236D01*
X160826768Y-91333768D01*
X160853236Y-91312045D01*
X160883437Y-91295903D01*
X160916210Y-91285961D01*
X160956427Y-91282000D01*
X162893573Y-91282000D01*
X162933790Y-91285961D01*
X162933790Y-91285961D01*
G37*
G36*
X210163782Y-90396328D02*
X210265151Y-90406312D01*
X210438572Y-90458919D01*
X210438574Y-90458920D01*
X210438577Y-90458921D01*
X210598398Y-90544346D01*
X210738486Y-90659314D01*
X210853454Y-90799402D01*
X210938879Y-90959223D01*
X210938880Y-90959226D01*
X210938881Y-90959228D01*
X210991488Y-91132649D01*
X211009251Y-91313000D01*
X210991488Y-91493351D01*
X210938881Y-91666772D01*
X210938879Y-91666777D01*
X210853454Y-91826598D01*
X210738486Y-91966686D01*
X210598398Y-92081654D01*
X210438577Y-92167079D01*
X210438574Y-92167080D01*
X210438572Y-92167081D01*
X210265151Y-92219688D01*
X210163782Y-92229672D01*
X210129993Y-92233000D01*
X209579607Y-92233000D01*
X209545818Y-92229672D01*
X209444449Y-92219688D01*
X209271028Y-92167081D01*
X209271026Y-92167080D01*
X209271023Y-92167079D01*
X209111202Y-92081654D01*
X208971114Y-91966686D01*
X208856146Y-91826598D01*
X208770721Y-91666777D01*
X208770719Y-91666772D01*
X208718112Y-91493351D01*
X208700349Y-91313000D01*
X208718112Y-91132649D01*
X208770719Y-90959228D01*
X208770720Y-90959226D01*
X208770721Y-90959223D01*
X208856146Y-90799402D01*
X208971114Y-90659314D01*
X209111202Y-90544346D01*
X209271023Y-90458921D01*
X209271026Y-90458920D01*
X209271028Y-90458919D01*
X209444449Y-90406312D01*
X209545818Y-90396328D01*
X209579607Y-90393000D01*
X210129993Y-90393000D01*
X210163782Y-90396328D01*
X210163782Y-90396328D01*
G37*
G36*
X162233982Y-88745328D02*
X162335351Y-88755312D01*
X162508772Y-88807919D01*
X162508774Y-88807920D01*
X162508777Y-88807921D01*
X162668598Y-88893346D01*
X162808686Y-89008314D01*
X162923654Y-89148402D01*
X163009079Y-89308223D01*
X163009080Y-89308226D01*
X163009081Y-89308228D01*
X163061688Y-89481649D01*
X163079451Y-89662000D01*
X163061688Y-89842351D01*
X163009081Y-90015772D01*
X163009079Y-90015777D01*
X162923654Y-90175598D01*
X162808686Y-90315686D01*
X162668598Y-90430654D01*
X162508777Y-90516079D01*
X162508774Y-90516080D01*
X162508772Y-90516081D01*
X162335351Y-90568688D01*
X162233982Y-90578672D01*
X162200193Y-90582000D01*
X161649807Y-90582000D01*
X161616018Y-90578672D01*
X161514649Y-90568688D01*
X161341228Y-90516081D01*
X161341226Y-90516080D01*
X161341223Y-90516079D01*
X161181402Y-90430654D01*
X161041314Y-90315686D01*
X160926346Y-90175598D01*
X160840921Y-90015777D01*
X160840919Y-90015772D01*
X160788312Y-89842351D01*
X160770549Y-89662000D01*
X160788312Y-89481649D01*
X160840919Y-89308228D01*
X160840920Y-89308226D01*
X160840921Y-89308223D01*
X160926346Y-89148402D01*
X161041314Y-89008314D01*
X161181402Y-88893346D01*
X161341223Y-88807921D01*
X161341226Y-88807920D01*
X161341228Y-88807919D01*
X161514649Y-88755312D01*
X161616018Y-88745328D01*
X161649807Y-88742000D01*
X162200193Y-88742000D01*
X162233982Y-88745328D01*
X162233982Y-88745328D01*
G37*
G36*
X210863590Y-87856961D02*
X210896363Y-87866903D01*
X210926564Y-87883045D01*
X210953032Y-87904768D01*
X210974755Y-87931236D01*
X210990897Y-87961437D01*
X211000839Y-87994210D01*
X211004800Y-88034427D01*
X211004800Y-89511573D01*
X211000839Y-89551790D01*
X210990897Y-89584563D01*
X210974755Y-89614764D01*
X210953032Y-89641232D01*
X210926564Y-89662955D01*
X210896363Y-89679097D01*
X210863590Y-89689039D01*
X210823373Y-89693000D01*
X208886227Y-89693000D01*
X208846010Y-89689039D01*
X208813237Y-89679097D01*
X208783036Y-89662955D01*
X208756568Y-89641232D01*
X208734845Y-89614764D01*
X208718703Y-89584563D01*
X208708761Y-89551790D01*
X208704800Y-89511573D01*
X208704800Y-88034427D01*
X208708761Y-87994210D01*
X208718703Y-87961437D01*
X208734845Y-87931236D01*
X208756568Y-87904768D01*
X208783036Y-87883045D01*
X208813237Y-87866903D01*
X208846010Y-87856961D01*
X208886227Y-87853000D01*
X210823373Y-87853000D01*
X210863590Y-87856961D01*
X210863590Y-87856961D01*
G37*
G36*
X216442079Y-80104345D02*
X216442082Y-80104346D01*
X216442081Y-80104346D01*
X217097240Y-80375721D01*
X217496797Y-80642697D01*
X217686869Y-80769699D01*
X218188301Y-81271131D01*
X218188303Y-81271134D01*
X218582279Y-81860760D01*
X218750383Y-82266601D01*
X218853655Y-82515921D01*
X218992000Y-83211429D01*
X218992000Y-83920571D01*
X218853655Y-84616079D01*
X218853654Y-84616081D01*
X218582279Y-85271240D01*
X218302054Y-85690626D01*
X218188301Y-85860869D01*
X217686869Y-86362301D01*
X217686866Y-86362303D01*
X217097240Y-86756279D01*
X216538026Y-86987912D01*
X216442079Y-87027655D01*
X215746571Y-87166000D01*
X215037429Y-87166000D01*
X214341921Y-87027655D01*
X214245974Y-86987912D01*
X213686760Y-86756279D01*
X213097134Y-86362303D01*
X213097131Y-86362301D01*
X212595699Y-85860869D01*
X212481946Y-85690626D01*
X212201721Y-85271240D01*
X211930346Y-84616081D01*
X211930345Y-84616079D01*
X211792000Y-83920571D01*
X211792000Y-83211429D01*
X211930345Y-82515921D01*
X212033617Y-82266601D01*
X212201721Y-81860760D01*
X212595697Y-81271134D01*
X212595699Y-81271131D01*
X213097131Y-80769699D01*
X213287203Y-80642697D01*
X213686760Y-80375721D01*
X214341919Y-80104346D01*
X214341918Y-80104346D01*
X214341921Y-80104345D01*
X215037429Y-79966000D01*
X215746571Y-79966000D01*
X216442079Y-80104345D01*
X216442079Y-80104345D01*
G37*
G36*
X163102079Y-79977345D02*
X163102082Y-79977346D01*
X163102081Y-79977346D01*
X163757240Y-80248721D01*
X164344205Y-80640919D01*
X164346869Y-80642699D01*
X164848301Y-81144131D01*
X164848303Y-81144134D01*
X165242279Y-81733760D01*
X165462988Y-82266601D01*
X165513655Y-82388921D01*
X165652000Y-83084429D01*
X165652000Y-83793571D01*
X165513655Y-84489079D01*
X165473912Y-84585026D01*
X165242279Y-85144240D01*
X164877195Y-85690626D01*
X164848301Y-85733869D01*
X164346869Y-86235301D01*
X164346866Y-86235303D01*
X163757240Y-86629279D01*
X163198026Y-86860912D01*
X163102079Y-86900655D01*
X162406571Y-87039000D01*
X161697429Y-87039000D01*
X161001921Y-86900655D01*
X160905974Y-86860912D01*
X160346760Y-86629279D01*
X159757134Y-86235303D01*
X159757131Y-86235301D01*
X159255699Y-85733869D01*
X159226805Y-85690626D01*
X158861721Y-85144240D01*
X158630088Y-84585026D01*
X158590345Y-84489079D01*
X158452000Y-83793571D01*
X158452000Y-83084429D01*
X158590345Y-82388921D01*
X158641012Y-82266601D01*
X158861721Y-81733760D01*
X159255697Y-81144134D01*
X159255699Y-81144131D01*
X159757131Y-80642699D01*
X159759795Y-80640919D01*
X160346760Y-80248721D01*
X161001919Y-79977346D01*
X161001918Y-79977346D01*
X161001921Y-79977345D01*
X161697429Y-79839000D01*
X162406571Y-79839000D01*
X163102079Y-79977345D01*
X163102079Y-79977345D01*
G37*
G36*
X170427934Y-84470664D02*
X170582627Y-84534740D01*
X170721847Y-84627764D01*
X170840236Y-84746153D01*
X170933260Y-84885373D01*
X170997336Y-85040066D01*
X171030000Y-85204281D01*
X171030000Y-85371719D01*
X170997336Y-85535934D01*
X170933260Y-85690627D01*
X170840236Y-85829847D01*
X170721847Y-85948236D01*
X170582627Y-86041260D01*
X170427934Y-86105336D01*
X170263719Y-86138000D01*
X170096281Y-86138000D01*
X169932066Y-86105336D01*
X169777373Y-86041260D01*
X169638153Y-85948236D01*
X169519764Y-85829847D01*
X169426740Y-85690627D01*
X169362664Y-85535934D01*
X169330000Y-85371719D01*
X169330000Y-85204281D01*
X169362664Y-85040066D01*
X169426740Y-84885373D01*
X169519764Y-84746153D01*
X169638153Y-84627764D01*
X169777373Y-84534740D01*
X169932066Y-84470664D01*
X170096281Y-84438000D01*
X170263719Y-84438000D01*
X170427934Y-84470664D01*
X170427934Y-84470664D01*
G37*
G36*
X196039352Y-82118743D02*
X196184941Y-82179048D01*
X196315973Y-82266601D01*
X196427399Y-82378027D01*
X196514952Y-82509059D01*
X196575257Y-82654648D01*
X196606000Y-82809205D01*
X196606000Y-82966795D01*
X196575257Y-83121352D01*
X196514952Y-83266941D01*
X196427399Y-83397973D01*
X196315973Y-83509399D01*
X196184941Y-83596952D01*
X196039352Y-83657257D01*
X195884795Y-83688000D01*
X195727205Y-83688000D01*
X195572648Y-83657257D01*
X195427059Y-83596952D01*
X195296027Y-83509399D01*
X195184601Y-83397973D01*
X195097048Y-83266941D01*
X195036743Y-83121352D01*
X195006000Y-82966795D01*
X195006000Y-82809205D01*
X195036743Y-82654648D01*
X195097048Y-82509059D01*
X195184601Y-82378027D01*
X195296027Y-82266601D01*
X195427059Y-82179048D01*
X195572648Y-82118743D01*
X195727205Y-82088000D01*
X195884795Y-82088000D01*
X196039352Y-82118743D01*
X196039352Y-82118743D01*
G37*
G36*
X178709352Y-82118743D02*
X178854941Y-82179048D01*
X178985973Y-82266601D01*
X179097399Y-82378027D01*
X179184952Y-82509059D01*
X179245257Y-82654648D01*
X179276000Y-82809205D01*
X179276000Y-82966795D01*
X179245257Y-83121352D01*
X179184952Y-83266941D01*
X179097399Y-83397973D01*
X178985973Y-83509399D01*
X178854941Y-83596952D01*
X178709352Y-83657257D01*
X178554795Y-83688000D01*
X178397205Y-83688000D01*
X178242648Y-83657257D01*
X178097059Y-83596952D01*
X177966027Y-83509399D01*
X177854601Y-83397973D01*
X177767048Y-83266941D01*
X177706743Y-83121352D01*
X177676000Y-82966795D01*
X177676000Y-82809205D01*
X177706743Y-82654648D01*
X177767048Y-82509059D01*
X177854601Y-82378027D01*
X177966027Y-82266601D01*
X178097059Y-82179048D01*
X178242648Y-82118743D01*
X178397205Y-82088000D01*
X178554795Y-82088000D01*
X178709352Y-82118743D01*
X178709352Y-82118743D01*
G37*
G36*
X183789352Y-82118743D02*
X183934941Y-82179048D01*
X184065973Y-82266601D01*
X184177399Y-82378027D01*
X184264952Y-82509059D01*
X184325257Y-82654648D01*
X184356000Y-82809205D01*
X184356000Y-82966795D01*
X184325257Y-83121352D01*
X184264952Y-83266941D01*
X184177399Y-83397973D01*
X184065973Y-83509399D01*
X183934941Y-83596952D01*
X183789352Y-83657257D01*
X183634795Y-83688000D01*
X183477205Y-83688000D01*
X183322648Y-83657257D01*
X183177059Y-83596952D01*
X183046027Y-83509399D01*
X182934601Y-83397973D01*
X182847048Y-83266941D01*
X182786743Y-83121352D01*
X182756000Y-82966795D01*
X182756000Y-82809205D01*
X182786743Y-82654648D01*
X182847048Y-82509059D01*
X182934601Y-82378027D01*
X183046027Y-82266601D01*
X183177059Y-82179048D01*
X183322648Y-82118743D01*
X183477205Y-82088000D01*
X183634795Y-82088000D01*
X183789352Y-82118743D01*
X183789352Y-82118743D01*
G37*
G36*
X186329352Y-82118743D02*
X186474941Y-82179048D01*
X186605973Y-82266601D01*
X186717399Y-82378027D01*
X186804952Y-82509059D01*
X186865257Y-82654648D01*
X186896000Y-82809205D01*
X186896000Y-82966795D01*
X186865257Y-83121352D01*
X186804952Y-83266941D01*
X186717399Y-83397973D01*
X186605973Y-83509399D01*
X186474941Y-83596952D01*
X186329352Y-83657257D01*
X186174795Y-83688000D01*
X186017205Y-83688000D01*
X185862648Y-83657257D01*
X185717059Y-83596952D01*
X185586027Y-83509399D01*
X185474601Y-83397973D01*
X185387048Y-83266941D01*
X185326743Y-83121352D01*
X185296000Y-82966795D01*
X185296000Y-82809205D01*
X185326743Y-82654648D01*
X185387048Y-82509059D01*
X185474601Y-82378027D01*
X185586027Y-82266601D01*
X185717059Y-82179048D01*
X185862648Y-82118743D01*
X186017205Y-82088000D01*
X186174795Y-82088000D01*
X186329352Y-82118743D01*
X186329352Y-82118743D01*
G37*
G36*
X181249352Y-82118743D02*
X181394941Y-82179048D01*
X181525973Y-82266601D01*
X181637399Y-82378027D01*
X181724952Y-82509059D01*
X181785257Y-82654648D01*
X181816000Y-82809205D01*
X181816000Y-82966795D01*
X181785257Y-83121352D01*
X181724952Y-83266941D01*
X181637399Y-83397973D01*
X181525973Y-83509399D01*
X181394941Y-83596952D01*
X181249352Y-83657257D01*
X181094795Y-83688000D01*
X180937205Y-83688000D01*
X180782648Y-83657257D01*
X180637059Y-83596952D01*
X180506027Y-83509399D01*
X180394601Y-83397973D01*
X180307048Y-83266941D01*
X180246743Y-83121352D01*
X180216000Y-82966795D01*
X180216000Y-82809205D01*
X180246743Y-82654648D01*
X180307048Y-82509059D01*
X180394601Y-82378027D01*
X180506027Y-82266601D01*
X180637059Y-82179048D01*
X180782648Y-82118743D01*
X180937205Y-82088000D01*
X181094795Y-82088000D01*
X181249352Y-82118743D01*
X181249352Y-82118743D01*
G37*
G36*
X200669352Y-82118743D02*
X200814941Y-82179048D01*
X200945973Y-82266601D01*
X201057399Y-82378027D01*
X201144952Y-82509059D01*
X201205257Y-82654648D01*
X201236000Y-82809205D01*
X201236000Y-82966795D01*
X201205257Y-83121352D01*
X201144952Y-83266941D01*
X201057399Y-83397973D01*
X200945973Y-83509399D01*
X200814941Y-83596952D01*
X200669352Y-83657257D01*
X200514795Y-83688000D01*
X200357205Y-83688000D01*
X200202648Y-83657257D01*
X200057059Y-83596952D01*
X199926027Y-83509399D01*
X199814601Y-83397973D01*
X199727048Y-83266941D01*
X199666743Y-83121352D01*
X199636000Y-82966795D01*
X199636000Y-82809205D01*
X199666743Y-82654648D01*
X199727048Y-82509059D01*
X199814601Y-82378027D01*
X199926027Y-82266601D01*
X200057059Y-82179048D01*
X200202648Y-82118743D01*
X200357205Y-82088000D01*
X200514795Y-82088000D01*
X200669352Y-82118743D01*
X200669352Y-82118743D01*
G37*
G36*
X203209352Y-82118743D02*
X203354941Y-82179048D01*
X203485973Y-82266601D01*
X203597399Y-82378027D01*
X203684952Y-82509059D01*
X203745257Y-82654648D01*
X203776000Y-82809205D01*
X203776000Y-82966795D01*
X203745257Y-83121352D01*
X203684952Y-83266941D01*
X203597399Y-83397973D01*
X203485973Y-83509399D01*
X203354941Y-83596952D01*
X203209352Y-83657257D01*
X203054795Y-83688000D01*
X202897205Y-83688000D01*
X202742648Y-83657257D01*
X202597059Y-83596952D01*
X202466027Y-83509399D01*
X202354601Y-83397973D01*
X202267048Y-83266941D01*
X202206743Y-83121352D01*
X202176000Y-82966795D01*
X202176000Y-82809205D01*
X202206743Y-82654648D01*
X202267048Y-82509059D01*
X202354601Y-82378027D01*
X202466027Y-82266601D01*
X202597059Y-82179048D01*
X202742648Y-82118743D01*
X202897205Y-82088000D01*
X203054795Y-82088000D01*
X203209352Y-82118743D01*
X203209352Y-82118743D01*
G37*
G36*
X205749352Y-82118743D02*
X205894941Y-82179048D01*
X206025973Y-82266601D01*
X206137399Y-82378027D01*
X206224952Y-82509059D01*
X206285257Y-82654648D01*
X206316000Y-82809205D01*
X206316000Y-82966795D01*
X206285257Y-83121352D01*
X206224952Y-83266941D01*
X206137399Y-83397973D01*
X206025973Y-83509399D01*
X205894941Y-83596952D01*
X205749352Y-83657257D01*
X205594795Y-83688000D01*
X205437205Y-83688000D01*
X205282648Y-83657257D01*
X205137059Y-83596952D01*
X205006027Y-83509399D01*
X204894601Y-83397973D01*
X204807048Y-83266941D01*
X204746743Y-83121352D01*
X204716000Y-82966795D01*
X204716000Y-82809205D01*
X204746743Y-82654648D01*
X204807048Y-82509059D01*
X204894601Y-82378027D01*
X205006027Y-82266601D01*
X205137059Y-82179048D01*
X205282648Y-82118743D01*
X205437205Y-82088000D01*
X205594795Y-82088000D01*
X205749352Y-82118743D01*
X205749352Y-82118743D01*
G37*
G36*
X208289352Y-82118743D02*
X208434941Y-82179048D01*
X208565973Y-82266601D01*
X208677399Y-82378027D01*
X208764952Y-82509059D01*
X208825257Y-82654648D01*
X208856000Y-82809205D01*
X208856000Y-82966795D01*
X208825257Y-83121352D01*
X208764952Y-83266941D01*
X208677399Y-83397973D01*
X208565973Y-83509399D01*
X208434941Y-83596952D01*
X208289352Y-83657257D01*
X208134795Y-83688000D01*
X207977205Y-83688000D01*
X207822648Y-83657257D01*
X207677059Y-83596952D01*
X207546027Y-83509399D01*
X207434601Y-83397973D01*
X207347048Y-83266941D01*
X207286743Y-83121352D01*
X207256000Y-82966795D01*
X207256000Y-82809205D01*
X207286743Y-82654648D01*
X207347048Y-82509059D01*
X207434601Y-82378027D01*
X207546027Y-82266601D01*
X207677059Y-82179048D01*
X207822648Y-82118743D01*
X207977205Y-82088000D01*
X208134795Y-82088000D01*
X208289352Y-82118743D01*
X208289352Y-82118743D01*
G37*
G36*
X193499352Y-82118743D02*
X193644941Y-82179048D01*
X193775973Y-82266601D01*
X193887399Y-82378027D01*
X193974952Y-82509059D01*
X194035257Y-82654648D01*
X194066000Y-82809205D01*
X194066000Y-82966795D01*
X194035257Y-83121352D01*
X193974952Y-83266941D01*
X193887399Y-83397973D01*
X193775973Y-83509399D01*
X193644941Y-83596952D01*
X193499352Y-83657257D01*
X193344795Y-83688000D01*
X193187205Y-83688000D01*
X193032648Y-83657257D01*
X192887059Y-83596952D01*
X192756027Y-83509399D01*
X192644601Y-83397973D01*
X192557048Y-83266941D01*
X192496743Y-83121352D01*
X192466000Y-82966795D01*
X192466000Y-82809205D01*
X192496743Y-82654648D01*
X192557048Y-82509059D01*
X192644601Y-82378027D01*
X192756027Y-82266601D01*
X192887059Y-82179048D01*
X193032648Y-82118743D01*
X193187205Y-82088000D01*
X193344795Y-82088000D01*
X193499352Y-82118743D01*
X193499352Y-82118743D01*
G37*
G36*
X198579352Y-82118743D02*
X198724941Y-82179048D01*
X198855973Y-82266601D01*
X198967399Y-82378027D01*
X199054952Y-82509059D01*
X199115257Y-82654648D01*
X199146000Y-82809205D01*
X199146000Y-82966795D01*
X199115257Y-83121352D01*
X199054952Y-83266941D01*
X198967399Y-83397973D01*
X198855973Y-83509399D01*
X198724941Y-83596952D01*
X198579352Y-83657257D01*
X198424795Y-83688000D01*
X198267205Y-83688000D01*
X198112648Y-83657257D01*
X197967059Y-83596952D01*
X197836027Y-83509399D01*
X197724601Y-83397973D01*
X197637048Y-83266941D01*
X197576743Y-83121352D01*
X197546000Y-82966795D01*
X197546000Y-82809205D01*
X197576743Y-82654648D01*
X197637048Y-82509059D01*
X197724601Y-82378027D01*
X197836027Y-82266601D01*
X197967059Y-82179048D01*
X198112648Y-82118743D01*
X198267205Y-82088000D01*
X198424795Y-82088000D01*
X198579352Y-82118743D01*
X198579352Y-82118743D01*
G37*
G36*
X190959352Y-82118743D02*
X191104941Y-82179048D01*
X191235973Y-82266601D01*
X191347399Y-82378027D01*
X191434952Y-82509059D01*
X191495257Y-82654648D01*
X191526000Y-82809205D01*
X191526000Y-82966795D01*
X191495257Y-83121352D01*
X191434952Y-83266941D01*
X191347399Y-83397973D01*
X191235973Y-83509399D01*
X191104941Y-83596952D01*
X190959352Y-83657257D01*
X190804795Y-83688000D01*
X190647205Y-83688000D01*
X190492648Y-83657257D01*
X190347059Y-83596952D01*
X190216027Y-83509399D01*
X190104601Y-83397973D01*
X190017048Y-83266941D01*
X189956743Y-83121352D01*
X189926000Y-82966795D01*
X189926000Y-82809205D01*
X189956743Y-82654648D01*
X190017048Y-82509059D01*
X190104601Y-82378027D01*
X190216027Y-82266601D01*
X190347059Y-82179048D01*
X190492648Y-82118743D01*
X190647205Y-82088000D01*
X190804795Y-82088000D01*
X190959352Y-82118743D01*
X190959352Y-82118743D01*
G37*
G36*
X188419352Y-82118743D02*
X188564941Y-82179048D01*
X188695973Y-82266601D01*
X188807399Y-82378027D01*
X188894952Y-82509059D01*
X188955257Y-82654648D01*
X188986000Y-82809205D01*
X188986000Y-82966795D01*
X188955257Y-83121352D01*
X188894952Y-83266941D01*
X188807399Y-83397973D01*
X188695973Y-83509399D01*
X188564941Y-83596952D01*
X188419352Y-83657257D01*
X188264795Y-83688000D01*
X188107205Y-83688000D01*
X187952648Y-83657257D01*
X187807059Y-83596952D01*
X187676027Y-83509399D01*
X187564601Y-83397973D01*
X187477048Y-83266941D01*
X187416743Y-83121352D01*
X187386000Y-82966795D01*
X187386000Y-82809205D01*
X187416743Y-82654648D01*
X187477048Y-82509059D01*
X187564601Y-82378027D01*
X187676027Y-82266601D01*
X187807059Y-82179048D01*
X187952648Y-82118743D01*
X188107205Y-82088000D01*
X188264795Y-82088000D01*
X188419352Y-82118743D01*
X188419352Y-82118743D01*
G37*
G36*
X210829352Y-82118743D02*
X210974941Y-82179048D01*
X211105973Y-82266601D01*
X211217399Y-82378027D01*
X211304952Y-82509059D01*
X211365257Y-82654648D01*
X211396000Y-82809205D01*
X211396000Y-82966795D01*
X211365257Y-83121352D01*
X211304952Y-83266941D01*
X211217399Y-83397973D01*
X211105973Y-83509399D01*
X210974941Y-83596952D01*
X210829352Y-83657257D01*
X210674795Y-83688000D01*
X210517205Y-83688000D01*
X210362648Y-83657257D01*
X210217059Y-83596952D01*
X210086027Y-83509399D01*
X209974601Y-83397973D01*
X209887048Y-83266941D01*
X209826743Y-83121352D01*
X209796000Y-82966795D01*
X209796000Y-82809205D01*
X209826743Y-82654648D01*
X209887048Y-82509059D01*
X209974601Y-82378027D01*
X210086027Y-82266601D01*
X210217059Y-82179048D01*
X210362648Y-82118743D01*
X210517205Y-82088000D01*
X210674795Y-82088000D01*
X210829352Y-82118743D01*
X210829352Y-82118743D01*
G37*
G36*
X176169352Y-82118743D02*
X176314941Y-82179048D01*
X176445973Y-82266601D01*
X176557399Y-82378027D01*
X176644952Y-82509059D01*
X176705257Y-82654648D01*
X176736000Y-82809205D01*
X176736000Y-82966795D01*
X176705257Y-83121352D01*
X176644952Y-83266941D01*
X176557399Y-83397973D01*
X176445973Y-83509399D01*
X176314941Y-83596952D01*
X176169352Y-83657257D01*
X176014795Y-83688000D01*
X175857205Y-83688000D01*
X175702648Y-83657257D01*
X175557059Y-83596952D01*
X175426027Y-83509399D01*
X175314601Y-83397973D01*
X175227048Y-83266941D01*
X175166743Y-83121352D01*
X175136000Y-82966795D01*
X175136000Y-82809205D01*
X175166743Y-82654648D01*
X175227048Y-82509059D01*
X175314601Y-82378027D01*
X175426027Y-82266601D01*
X175557059Y-82179048D01*
X175702648Y-82118743D01*
X175857205Y-82088000D01*
X176014795Y-82088000D01*
X176169352Y-82118743D01*
X176169352Y-82118743D01*
G37*
G36*
X171030000Y-82638000D02*
X169330000Y-82638000D01*
X169330000Y-80938000D01*
X171030000Y-80938000D01*
X171030000Y-82638000D01*
X171030000Y-82638000D01*
G37*
M02*
